<?xml version="1.0" standalone="no"?>
<!DOCTYPE svg PUBLIC "-//W3C//DTD SVG 20010904//EN"
 "http://www.w3.org/TR/2001/REC-SVG-20010904/DTD/svg10.dtd">
<svg version="1.0" xmlns="http://www.w3.org/2000/svg"
 width="512.000000pt" height="512.000000pt" viewBox="0 0 512.000000 512.000000"
 preserveAspectRatio="xMidYMid meet">
<metadata>
Created by potrace 1.14, written by Peter Selinger 2001-2017
</metadata>
<g transform="translate(0.000000,512.000000) scale(0.100000,-0.100000)"
fill="#000000" stroke="none">
<path d="M586 4974 c-145 -35 -289 -147 -358 -280 -72 -138 -68 14 -68 -2134
0 -2148 -4 -1996 68 -2134 48 -92 136 -180 228 -228 138 -72 -10 -68 2104 -68
2114 0 1966 -4 2104 68 92 48 180 136 228 228 72 138 68 -14 68 2134 0 2148 4
1996 -68 2134 -71 135 -213 245 -363 281 -93 22 -3852 21 -3943 -1z m2155
-1210 c246 -46 407 -171 471 -364 21 -62 22 -88 28 -570 7 -578 2 -544 101
-694 33 -49 59 -97 59 -108 0 -22 -8 -31 -173 -173 -140 -121 -155 -130 -189
-122 -32 8 -126 102 -184 183 l-47 66 -51 -50 c-155 -149 -276 -200 -491 -209
-206 -8 -333 33 -445 146 -103 103 -145 226 -144 421 0 109 4 135 28 205 104
306 342 433 906 488 l125 12 0 110 c0 65 -6 126 -14 148 -18 53 -68 107 -119
130 -56 24 -163 25 -234 1 -64 -21 -140 -93 -157 -150 -23 -73 -34 -95 -52
-105 -26 -13 -375 26 -406 46 -29 19 -29 43 -2 131 53 173 159 298 319 376 85
42 202 79 285 91 80 11 308 6 386 -9z m1148 -1703 c24 -5 47 -15 52 -22 27
-44 -4 -256 -52 -351 -28 -57 -87 -128 -105 -128 -18 0 -19 -11 16 126 37 144
43 225 17 251 -24 24 -136 23 -270 -2 -54 -9 -101 -15 -104 -11 -9 9 27 45 72
71 102 58 265 87 374 66z m-171 -242 c3 -22 -9 -35 -75 -86 -225 -174 -487
-289 -818 -359 -148 -32 -472 -44 -632 -25 -234 29 -446 92 -658 196 -133 66
-309 177 -329 207 -24 39 9 38 104 -3 512 -221 1116 -276 1668 -153 170 38
397 115 552 189 147 69 183 76 188 34z"/>
<path d="M2526 2694 c-108 -20 -194 -62 -249 -124 -57 -64 -79 -126 -79 -229
0 -164 82 -261 222 -261 129 0 240 100 292 263 15 46 22 101 25 215 l6 152
-69 -1 c-38 0 -104 -7 -148 -15z"/>
</g>
</svg>
